{"accessors":[{"bufferView":0,"byteOffset":0,"componentType":5126,"count":1,"max":[0],"min":[0],"normalized":false,"type":"SCALAR"},{"bufferView":1,"byteOffset":0,"componentType":5126,"count":1,"max":[40,216,0],"min":[40,216,0],"normalized":false,"type":"VEC3"},{"bufferView":2,"byteOffset":0,"componentType":5126,"count":1,"max":[0],"min":[0],"normalized":false,"type":"SCALAR"},{"bufferView":3,"byteOffset":0,"componentType":5126,"count":1,"max":[30,30,0],"min":[30,30,0],"normalized":false,"type":"VEC3"},{"bufferView":4,"byteOffset":0,"componentType":5126,"count":1,"max":[0],"min":[0],"normalized":false,"type":"SCALAR"},{"bufferView":5,"byteOffset":0,"componentType":5126,"count":1,"max":[0.99999988079071,0.99999988079071,0],"min":[0.99999988079071,0.99999988079071,0],"normalized":false,"type":"VEC3"},{"bufferView":6,"byteOffset":0,"componentType":5126,"count":5,"max":[1],"min":[0],"normalized":false,"type":"SCALAR"},{"bufferView":7,"byteOffset":0,"componentType":5126,"count":5,"max":[40,216,0],"min":[40,176.000015258789,0],"normalized":false,"type":"VEC3"},{"bufferView":8,"byteOffset":0,"componentType":5126,"count":5,"max":[1],"min":[0],"normalized":false,"type":"SCALAR"},{"bufferView":9,"byteOffset":0,"componentType":5126,"count":5,"max":[30,30,0],"min":[28.4869556427002,30,0],"normalized":false,"type":"VEC3"},{"bufferView":10,"byteOffset":0,"componentType":5126,"count":6,"max":[1],"min":[0],"normalized":false,"type":"SCALAR"},{"bufferView":11,"byteOffset":0,"componentType":5126,"count":6,"max":[1.02968513965607,0.99999988079071,0],"min":[0.955285370349884,0.99999988079071,0],"normalized":false,"type":"VEC3"}],"animations":[{"channels":[{"sampler":0,"target":{"node":11,"path":"translation"}},{"sampler":1,"target":{"node":11,"path":"scale"}},{"sampler":2,"target":{"node":12,"path":"scale"}}],"name":"RESET","samplers":[{"input":0,"interpolation":"LINEAR","output":1},{"input":2,"interpolation":"LINEAR","output":3},{"input":4,"interpolation":"LINEAR","output":5}]},{"channels":[{"sampler":0,"target":{"node":11,"path":"translation"}},{"sampler":1,"target":{"node":11,"path":"scale"}},{"sampler":2,"target":{"node":12,"path":"scale"}}],"name":"Walk-loop","samplers":[{"input":6,"interpolation":"LINEAR","output":7},{"input":8,"interpolation":"LINEAR","output":9},{"input":10,"interpolation":"LINEAR","output":11}]}],"asset":{"generator":"Godot Engine v4.3.stable.official@77dcf97d82cbfe4e4615475fa52ca03da645dbd8","version":"2.0"},"bufferViews":[{"buffer":0,"byteLength":4,"byteOffset":0},{"buffer":0,"byteLength":12,"byteOffset":4},{"buffer":0,"byteLength":4,"byteOffset":16},{"buffer":0,"byteLength":12,"byteOffset":20},{"buffer":0,"byteLength":4,"byteOffset":32},{"buffer":0,"byteLength":12,"byteOffset":36},{"buffer":0,"byteLength":20,"byteOffset":48},{"buffer":0,"byteLength":60,"byteOffset":68},{"buffer":0,"byteLength":20,"byteOffset":128},{"buffer":0,"byteLength":60,"byteOffset":148},{"buffer":0,"byteLength":24,"byteOffset":208},{"buffer":0,"byteLength":72,"byteOffset":232}],"buffers":[{"byteLength":304,"uri":"Player0.bin"}],"extensionsUsed":["GODOT_single_root"],"nodes":[{"children":[1,2,10,18,19],"name":"CharacterBody2D"},{"name":"CollisionShape2D"},{"children":[3,4,5,6,7,8,9],"name":"Polygons"},{"name":"BackArm"},{"name":"BackLeg"},{"name":"Tail"},{"name":"Torso"},{"name":"Head"},{"name":"Front Leg"},{"name":"FrontArmV2"},{"children":[11],"name":"Skeleton2D"},{"children":[12,13,14,15,16,17],"name":"Torso2"},{"name":"Head2"},{"name":"BackArm2"},{"name":"FrontArm"},{"name":"BackLeg2"},{"name":"FrontLeg"},{"name":"Tail2"},{"name":"Sprite2D"},{"name":"AnimationPlayer"}],"scene":0,"scenes":[{"nodes":[0]}]}